{"glyphs":{"0":{"ha":1017,"x_min":34,"x_max":983,"o":"m 509 0 q 173 139 312 0 q 34 475 34 278 q 173 810 34 671 q 509 949 312 949 q 844 810 705 949 q 983 475 983 671 q 844 139 983 278 q 509 0 705 0 m 509 610 q 413 571 452 610 q 373 475 373 531 q 413 379 373 418 q 509 339 452 339 q 605 379 565 339 q 644 475 644 418 q 605 571 644 531 q 509 610 565 610 z "},"1":{"ha":475,"x_min":34,"x_max":441,"o":"m 441 949 l 441 0 l 102 0 l 102 678 l 34 678 l 102 949 l 441 949 z "},"2":{"ha":814,"x_min":34,"x_max":780,"o":"m 509 949 q 780 646 780 949 q 509 339 780 339 q 373 271 373 339 l 780 271 l 780 0 l 34 0 l 34 339 q 305 610 34 610 q 441 638 441 610 q 373 678 441 678 l 34 678 l 34 949 l 509 949 z "},"3":{"ha":814,"x_min":34,"x_max":780,"o":"m 644 475 q 780 271 780 475 q 509 0 780 0 l 34 0 l 34 271 l 373 271 q 441 305 441 271 q 373 339 441 339 l 170 339 l 170 610 l 373 610 q 441 644 441 610 q 373 678 441 678 l 34 678 l 34 949 l 509 949 q 780 678 780 949 q 644 475 780 475 z "},"4":{"ha":882,"x_min":34,"x_max":848,"o":"m 170 949 l 475 949 l 407 610 l 509 610 l 509 949 l 848 949 l 848 0 l 509 0 l 509 339 l 34 339 l 170 949 z "},"5":{"ha":814,"x_min":34,"x_max":780,"o":"m 34 0 l 34 271 l 373 271 q 441 311 441 271 q 373 339 441 339 l 34 339 l 34 949 l 780 949 l 780 678 l 373 678 l 373 610 l 509 610 q 780 311 780 610 q 509 0 780 0 l 34 0 z "},"6":{"ha":814,"x_min":34,"x_max":780,"o":"m 459 271 q 509 305 509 271 q 459 339 509 339 l 355 339 q 305 305 305 339 q 355 271 305 271 l 459 271 m 373 678 q 305 610 305 678 l 509 610 q 780 311 780 610 q 509 0 780 0 l 305 0 q 34 311 34 0 l 34 679 q 305 949 34 949 l 712 949 l 712 678 l 373 678 z "},"7":{"ha":814,"x_min":34,"x_max":780,"o":"m 441 0 l 102 0 l 339 678 l 34 678 l 34 949 l 780 949 l 441 0 z "},"8":{"ha":882,"x_min":34,"x_max":848,"o":"m 509 610 q 576 644 576 610 q 509 678 576 678 l 373 677 q 305 642 305 676 q 373 610 305 610 l 509 610 m 170 475 q 34 678 34 475 q 305 949 34 949 l 576 949 q 848 678 848 949 q 712 475 848 475 q 848 271 848 475 q 576 0 848 0 l 305 0 q 34 271 34 0 q 170 475 34 475 m 509 271 q 576 305 576 271 q 509 339 576 339 l 373 338 q 305 303 305 337 q 373 271 305 271 l 509 271 z "},"9":{"ha":814,"x_min":34,"x_max":780,"o":"m 355 678 q 305 644 305 678 q 355 610 305 610 l 459 610 q 509 644 509 610 q 459 678 509 678 l 355 678 m 441 271 q 509 339 509 271 l 305 339 q 34 638 34 339 q 305 949 34 949 l 509 949 q 780 638 780 949 l 780 271 q 509 0 780 0 l 102 0 l 102 271 l 441 271 z "},"\u0000":{"ha":0,"x_min":0,"x_max":0,"o":""},"\u001d":{"ha":0,"x_min":0,"x_max":0,"o":""}," ":{"ha":345,"x_min":0,"x_max":0,"o":""}," ":{"ha":345,"x_min":0,"x_max":0,"o":""},"!":{"ha":475,"x_min":34,"x_max":441,"o":"m 102 407 l 34 949 l 441 949 l 373 407 l 102 407 m 237 339 q 357 290 308 339 q 407 170 407 240 q 357 50 407 99 q 237 0 308 0 q 117 50 167 0 q 68 170 68 99 q 117 290 68 240 q 237 339 167 339 z "},"\"":{"ha":678,"x_min":34,"x_max":644,"o":"m 305 949 l 305 543 l 34 543 l 34 949 l 305 949 m 644 949 l 644 543 l 373 543 l 373 949 l 644 949 z "},"#":{"ha":1017,"x_min":34,"x_max":983,"o":"m 102 407 l 102 543 l 34 543 l 34 814 l 102 814 l 102 949 l 407 949 l 407 814 l 610 814 l 610 949 l 916 949 l 916 814 l 983 814 l 983 543 l 916 543 l 916 407 l 983 407 l 983 136 l 916 136 l 916 0 l 610 0 l 610 136 l 407 136 l 407 0 l 102 0 l 102 136 l 34 136 l 34 407 l 102 407 m 407 543 l 407 407 l 610 407 l 610 543 l 407 543 z "},"$":{"ha":882,"x_min":34,"x_max":848,"o":"m 271 948 l 271 1017 l 543 1017 l 543 949 l 780 949 l 780 678 l 441 678 q 373 647 373 678 q 441 610 373 610 l 576 610 q 848 308 848 610 q 576 0 848 0 l 543 0 l 543 -68 l 271 -68 l 271 0 l 102 0 l 102 271 l 441 271 q 509 308 509 271 q 441 339 509 339 l 305 339 q 34 647 34 339 q 271 948 34 930 z "},"%":{"ha":1017,"x_min":34,"x_max":983,"o":"m 949 949 l 374 0 l 68 0 l 646 949 l 949 949 m 814 339 q 934 290 884 339 q 983 170 983 240 q 934 50 983 99 q 814 0 884 0 q 694 50 743 0 q 644 170 644 99 q 694 290 644 240 q 814 339 743 339 m 203 949 q 323 900 274 949 q 373 780 373 850 q 323 660 373 709 q 203 610 274 610 q 83 660 133 610 q 34 780 34 709 q 83 900 34 850 q 203 949 133 949 z "},"&":{"ha":1017,"x_min":34,"x_max":983,"o":"m 576 644 q 509 678 576 678 l 373 677 q 305 642 305 676 q 373 610 305 610 l 509 610 q 576 644 576 610 m 576 305 q 509 339 576 339 l 373 338 q 305 303 305 337 q 373 271 305 271 l 509 271 q 576 305 576 271 m 712 475 q 916 543 814 475 l 983 271 q 848 237 882 237 l 848 -68 l 576 -68 l 576 0 l 305 0 q 34 271 34 0 q 170 475 34 441 q 34 678 34 509 q 305 949 34 949 l 576 949 q 848 678 848 949 q 712 475 848 509 z "},"'":{"ha":339,"x_min":34,"x_max":305,"o":"m 305 949 l 305 543 l 34 543 l 34 949 l 305 949 z "},"(":{"ha":543,"x_min":34,"x_max":509,"o":"m 34 610 q 509 1085 34 1085 l 509 814 q 305 610 305 814 l 305 339 q 509 136 305 136 l 509 -136 q 34 339 34 -136 l 34 610 z "},")":{"ha":543,"x_min":34,"x_max":509,"o":"m 509 339 q 34 -136 509 -136 l 34 136 q 237 339 237 136 l 237 610 q 34 814 237 814 l 34 1085 q 509 610 509 1085 l 509 339 z "},"*":{"ha":746,"x_min":34,"x_max":712,"o":"m 441 774 l 564 899 l 661 803 l 536 678 l 712 678 l 712 543 l 536 543 l 661 418 l 564 322 l 441 446 l 441 271 l 305 271 l 305 446 l 182 322 l 85 418 l 210 543 l 34 543 l 34 678 l 210 678 l 85 803 l 182 899 l 305 774 l 305 949 l 441 949 l 441 774 z "},"+":{"ha":746,"x_min":34,"x_max":712,"o":"m 509 610 l 712 610 l 712 339 l 509 339 l 509 136 l 237 136 l 237 339 l 34 339 l 34 610 l 237 610 l 237 814 l 509 814 l 509 610 z "},",":{"ha":509,"x_min":34,"x_max":475,"o":"m 475 271 l 305 -203 l 34 -203 l 136 271 l 475 271 z "},"-":{"ha":543,"x_min":34,"x_max":509,"o":"m 509 610 l 509 339 l 34 339 l 34 610 l 509 610 z "},"­":{"ha":543,"x_min":34,"x_max":509,"o":"m 509 610 l 509 339 l 34 339 l 34 610 l 509 610 z "},".":{"ha":407,"x_min":34,"x_max":373,"o":"m 203 339 q 323 290 274 339 q 373 170 373 240 q 323 50 373 99 q 203 0 274 0 q 83 50 133 0 q 34 170 34 99 q 83 290 34 240 q 203 339 133 339 z "},"/":{"ha":960,"x_min":34,"x_max":926,"o":"m 926 1085 l 317 -136 l 34 -136 l 650 1085 l 926 1085 z "},":":{"ha":407,"x_min":34,"x_max":373,"o":"m 203 339 q 323 290 274 339 q 373 170 373 240 q 323 50 373 99 q 203 0 274 0 q 83 50 133 0 q 34 170 34 99 q 83 290 34 240 q 203 339 133 339 m 203 746 q 323 696 274 746 q 373 576 373 647 q 323 456 373 506 q 203 407 274 407 q 83 456 133 407 q 34 576 34 506 q 83 696 34 647 q 203 746 133 746 z "},";":{"ha":543,"x_min":34,"x_max":509,"o":"m 509 339 l 305 -68 l 34 -68 l 170 339 l 509 339 m 339 746 q 459 696 410 746 q 509 576 509 647 q 459 456 509 506 q 339 407 410 407 q 219 456 269 407 q 170 576 170 506 q 219 696 170 647 q 339 746 269 746 z "},";":{"ha":543,"x_min":34,"x_max":509,"o":"m 509 339 l 305 -68 l 34 -68 l 170 339 l 509 339 m 339 746 q 459 696 410 746 q 509 576 509 647 q 459 456 509 506 q 339 407 410 407 q 219 456 269 407 q 170 576 170 506 q 219 696 170 647 q 339 746 269 746 z "},"<":{"ha":814,"x_min":34,"x_max":780,"o":"m 34 610 l 780 949 l 780 678 l 305 475 l 780 271 l 780 0 l 34 339 l 34 610 z "},"=":{"ha":746,"x_min":34,"x_max":712,"o":"m 712 814 l 712 543 l 34 543 l 34 814 l 712 814 m 712 407 l 712 136 l 34 136 l 34 407 l 712 407 z "},">":{"ha":814,"x_min":34,"x_max":780,"o":"m 780 339 l 34 0 l 34 271 l 509 475 l 34 678 l 34 949 l 780 610 l 780 339 z "},"?":{"ha":814,"x_min":34,"x_max":780,"o":"m 407 339 q 527 290 477 339 q 576 170 576 240 q 527 50 576 99 q 407 0 477 0 q 287 50 336 0 q 237 170 237 99 q 287 290 237 240 q 407 339 336 339 m 237 610 l 373 610 q 441 638 441 610 q 373 678 441 678 l 34 678 l 34 949 l 509 949 q 780 678 780 949 q 576 475 780 475 l 543 407 l 271 407 l 237 610 z "},"@":{"ha":1024,"x_min":34,"x_max":990,"o":"m 522 288 q 386 243 469 243 q 273 288 309 243 q 247 365 247 319 q 252 409 247 385 q 379 625 277 531 q 600 719 481 719 q 767 667 661 719 q 678 469 691 507 q 659 404 665 431 q 657 388 657 395 q 666 374 657 374 q 762 437 715 374 q 826 587 808 500 q 838 663 838 629 q 803 757 838 722 q 648 813 747 813 q 362 694 490 813 q 197 395 235 576 q 189 323 189 357 q 224 206 189 254 q 384 135 276 135 q 501 155 441 135 q 614 222 562 174 l 677 111 q 512 28 604 57 q 342 0 421 0 q 92 106 175 0 q 34 286 34 180 q 45 382 34 331 q 278 786 96 624 q 689 948 460 948 q 934 857 854 948 q 990 695 990 792 q 980 607 990 654 q 852 358 950 467 q 631 250 753 250 q 522 288 548 250 m 571 601 q 475 543 524 601 q 411 416 426 484 q 409 397 409 406 q 432 372 409 372 q 493 399 464 372 q 542 473 522 426 q 590 595 561 519 q 571 601 585 601 z "},"A":{"ha":1017,"x_min":34,"x_max":983,"o":"m 390 68 l 373 0 l 34 0 l 305 949 l 712 949 l 983 0 l 644 0 l 627 68 l 390 68 m 559 339 l 509 543 l 458 339 l 559 339 z "},"B":{"ha":882,"x_min":34,"x_max":848,"o":"m 34 0 l 34 949 l 576 949 q 848 678 848 949 q 712 475 848 509 q 848 271 848 441 q 576 0 848 0 l 34 0 m 373 678 l 373 576 l 441 576 q 509 627 509 576 q 441 678 509 678 l 373 678 m 373 373 l 373 271 l 441 271 q 509 323 509 271 q 441 373 509 373 l 373 373 z "},"C":{"ha":882,"x_min":34,"x_max":848,"o":"m 509 0 q 173 139 312 0 q 34 475 34 278 q 173 810 34 671 q 509 949 312 949 q 844 810 705 949 q 848 807 846 808 l 608 568 q 605 571 606 570 q 509 610 565 610 q 413 571 452 610 q 373 475 373 531 q 413 379 373 418 q 509 339 452 339 q 604 378 564 339 l 844 138 q 509 0 705 0 z "},"D":{"ha":882,"x_min":34,"x_max":848,"o":"m 34 0 l 34 949 l 373 949 q 848 475 848 949 q 373 0 848 0 l 34 0 m 373 339 q 509 475 509 339 q 373 610 509 610 l 373 339 z "},"E":{"ha":746,"x_min":34,"x_max":712,"o":"m 712 949 l 712 678 l 373 678 l 373 610 l 644 610 l 644 339 l 373 339 l 373 271 l 712 271 l 712 0 l 34 0 l 34 949 l 712 949 z "},"F":{"ha":746,"x_min":34,"x_max":712,"o":"m 712 949 l 712 678 l 373 678 l 373 610 l 712 610 l 712 339 l 373 339 l 373 0 l 34 0 l 34 949 l 712 949 z "},"G":{"ha":949,"x_min":34,"x_max":916,"o":"m 509 0 q 173 139 312 0 q 34 475 34 278 q 173 810 34 671 q 509 949 312 949 q 844 810 705 949 q 848 807 846 808 l 608 568 q 605 571 606 570 q 509 610 565 610 q 413 571 452 610 q 373 475 373 531 q 413 379 373 418 q 509 339 452 339 q 576 357 546 339 l 576 543 l 916 543 l 916 0 l 509 0 z "},"H":{"ha":882,"x_min":34,"x_max":848,"o":"m 34 949 l 373 949 l 373 610 l 509 610 l 509 949 l 848 949 l 848 0 l 509 0 l 509 339 l 373 339 l 373 0 l 34 0 l 34 949 z "},"I":{"ha":407,"x_min":34,"x_max":373,"o":"m 373 949 l 373 0 l 34 0 l 34 949 l 373 949 z "},"J":{"ha":608,"x_min":34,"x_max":574,"o":"m 170 339 q 237 467 237 339 l 237 949 l 574 949 l 574 475 q 170 0 574 0 l 34 0 l 34 339 l 170 339 z "},"K":{"ha":949,"x_min":34,"x_max":916,"o":"m 373 746 l 509 949 l 916 949 l 543 475 l 916 0 l 509 0 l 373 203 l 373 0 l 34 0 l 34 949 l 373 949 l 373 746 z "},"L":{"ha":678,"x_min":34,"x_max":644,"o":"m 34 949 l 373 949 l 373 271 l 644 271 l 644 0 l 34 0 l 34 949 z "},"M":{"ha":1153,"x_min":34,"x_max":1119,"o":"m 1119 949 l 1119 0 l 780 0 l 780 452 l 576 170 l 373 450 l 373 0 l 34 0 l 34 949 l 441 949 l 576 712 l 712 949 l 1119 949 z "},"N":{"ha":882,"x_min":34,"x_max":848,"o":"m 373 407 l 373 0 l 34 0 l 34 949 l 373 949 l 509 543 l 509 949 l 848 949 l 848 0 l 509 0 l 373 407 z "},"O":{"ha":1017,"x_min":34,"x_max":983,"o":"m 509 0 q 173 139 312 0 q 34 475 34 278 q 173 810 34 671 q 509 949 312 949 q 844 810 705 949 q 983 475 983 671 q 844 139 983 278 q 509 0 705 0 m 509 610 q 413 571 452 610 q 373 475 373 531 q 413 379 373 418 q 509 339 452 339 q 605 379 565 339 q 644 475 644 418 q 605 571 644 531 q 509 610 565 610 z "},"P":{"ha":882,"x_min":34,"x_max":848,"o":"m 373 271 l 373 0 l 34 0 l 34 949 l 576 949 q 848 610 848 949 q 576 271 848 271 l 373 271 m 373 678 l 373 543 l 441 543 q 509 610 509 543 q 441 678 509 678 l 373 678 z "},"Q":{"ha":1051,"x_min":34,"x_max":1017,"o":"m 509 610 q 413 571 452 610 q 373 475 373 531 q 413 379 373 418 q 509 339 452 339 q 605 379 565 339 q 644 475 644 418 q 605 571 644 531 q 509 610 565 610 m 621 12 q 509 0 568 0 q 173 139 312 0 q 34 475 34 278 q 173 810 34 671 q 509 949 312 949 q 844 810 705 949 q 983 475 983 671 q 901 206 983 323 l 1017 68 l 746 -136 l 621 12 z "},"R":{"ha":882,"x_min":34,"x_max":848,"o":"m 373 678 l 373 543 l 441 543 q 509 610 509 543 q 441 678 509 678 l 373 678 m 373 271 l 373 0 l 34 0 l 34 949 l 576 949 q 848 610 848 949 q 701 295 848 360 l 848 0 l 509 0 l 373 271 z "},"S":{"ha":882,"x_min":34,"x_max":848,"o":"m 305 949 l 780 949 l 780 678 l 441 678 q 373 647 373 678 q 441 610 373 610 l 576 610 q 848 308 848 610 q 576 0 848 0 l 102 0 l 102 271 l 441 271 q 509 308 509 271 q 441 339 509 339 l 305 339 q 34 647 34 339 q 305 949 34 949 z "},"T":{"ha":814,"x_min":34,"x_max":780,"o":"m 576 678 l 576 0 l 237 0 l 237 678 l 34 678 l 34 949 l 780 949 l 780 678 l 576 678 z "},"U":{"ha":880,"x_min":34,"x_max":846,"o":"m 441 339 q 509 475 509 340 l 509 949 l 846 949 l 846 475 q 473 1 846 20 l 473 0 l 414 0 l 414 1 q 34 475 34 16 l 34 949 l 373 949 l 373 475 q 441 339 373 340 z "},"V":{"ha":1017,"x_min":34,"x_max":983,"o":"m 333 0 l 34 949 l 373 949 l 509 543 l 644 949 l 983 949 l 679 0 l 333 0 z "},"W":{"ha":1458,"x_min":34,"x_max":1424,"o":"m 728 203 l 644 0 l 333 0 l 34 949 l 373 949 l 509 543 l 610 949 l 845 949 l 949 543 l 1085 949 l 1424 949 l 1120 0 l 814 0 l 728 203 z "},"X":{"ha":1017,"x_min":34,"x_max":983,"o":"m 322 475 l 34 949 l 407 949 l 509 782 l 610 949 l 983 949 l 695 475 l 983 0 l 610 0 l 509 168 l 407 0 l 34 0 l 322 475 z "},"Y":{"ha":1017,"x_min":34,"x_max":983,"o":"m 340 407 l 34 949 l 373 949 l 509 746 l 644 949 l 983 949 l 679 407 l 679 0 l 340 0 l 340 407 z "},"Z":{"ha":814,"x_min":34,"x_max":780,"o":"m 780 949 l 780 678 l 441 271 l 780 271 l 780 0 l 34 0 l 34 271 l 373 678 l 34 678 l 34 949 l 780 949 z "},"[":{"ha":543,"x_min":34,"x_max":509,"o":"m 509 1085 l 509 814 l 305 814 l 305 136 l 509 136 l 509 -136 l 34 -136 l 34 1085 l 509 1085 z "},"\\":{"ha":960,"x_min":34,"x_max":926,"o":"m 309 1085 l 926 -136 l 642 -136 l 34 1085 l 309 1085 z "},"]":{"ha":543,"x_min":34,"x_max":509,"o":"m 509 1085 l 509 -136 l 34 -136 l 34 136 l 237 136 l 237 814 l 34 814 l 34 1085 l 509 1085 z "},"^":{"ha":746,"x_min":34,"x_max":712,"o":"m 576 949 l 712 610 l 441 610 l 373 780 l 305 610 l 34 610 l 170 949 l 576 949 z "},"_":{"ha":882,"x_min":34,"x_max":848,"o":"m 848 271 l 848 0 l 34 0 l 34 271 l 848 271 z "},"`":{"ha":475,"x_min":34,"x_max":441,"o":"m 34 1356 l 305 1356 l 441 1017 l 170 1017 l 34 1356 z "},"a":{"ha":1017,"x_min":34,"x_max":983,"o":"m 390 68 l 373 0 l 34 0 l 305 949 l 712 949 l 983 0 l 644 0 l 627 68 l 390 68 m 559 339 l 509 543 l 458 339 l 559 339 z "},"b":{"ha":882,"x_min":34,"x_max":848,"o":"m 34 0 l 34 949 l 576 949 q 848 678 848 949 q 712 475 848 509 q 848 271 848 441 q 576 0 848 0 l 34 0 m 373 678 l 373 576 l 441 576 q 509 627 509 576 q 441 678 509 678 l 373 678 m 373 373 l 373 271 l 441 271 q 509 323 509 271 q 441 373 509 373 l 373 373 z "},"c":{"ha":882,"x_min":34,"x_max":848,"o":"m 509 0 q 173 139 312 0 q 34 475 34 278 q 173 810 34 671 q 509 949 312 949 q 844 810 705 949 q 848 807 846 808 l 608 568 q 605 571 606 570 q 509 610 565 610 q 413 571 452 610 q 373 475 373 531 q 413 379 373 418 q 509 339 452 339 q 604 378 564 339 l 844 138 q 509 0 705 0 z "},"d":{"ha":882,"x_min":34,"x_max":848,"o":"m 34 0 l 34 949 l 373 949 q 848 475 848 949 q 373 0 848 0 l 34 0 m 373 339 q 509 475 509 339 q 373 610 509 610 l 373 339 z "},"e":{"ha":746,"x_min":34,"x_max":712,"o":"m 712 949 l 712 678 l 373 678 l 373 610 l 644 610 l 644 339 l 373 339 l 373 271 l 712 271 l 712 0 l 34 0 l 34 949 l 712 949 z "},"f":{"ha":746,"x_min":34,"x_max":712,"o":"m 712 949 l 712 678 l 373 678 l 373 610 l 712 610 l 712 339 l 373 339 l 373 0 l 34 0 l 34 949 l 712 949 z "},"g":{"ha":949,"x_min":34,"x_max":916,"o":"m 509 0 q 173 139 312 0 q 34 475 34 278 q 173 810 34 671 q 509 949 312 949 q 844 810 705 949 q 848 807 846 808 l 608 568 q 605 571 606 570 q 509 610 565 610 q 413 571 452 610 q 373 475 373 531 q 413 379 373 418 q 509 339 452 339 q 576 357 546 339 l 576 543 l 916 543 l 916 0 l 509 0 z "},"h":{"ha":882,"x_min":34,"x_max":848,"o":"m 34 949 l 373 949 l 373 610 l 509 610 l 509 949 l 848 949 l 848 0 l 509 0 l 509 339 l 373 339 l 373 0 l 34 0 l 34 949 z "},"i":{"ha":407,"x_min":34,"x_max":373,"o":"m 373 949 l 373 0 l 34 0 l 34 949 l 373 949 z "},"j":{"ha":608,"x_min":34,"x_max":574,"o":"m 170 339 q 237 467 237 339 l 237 949 l 574 949 l 574 475 q 170 0 574 0 l 34 0 l 34 339 l 170 339 z "},"k":{"ha":949,"x_min":34,"x_max":916,"o":"m 373 746 l 509 949 l 916 949 l 543 475 l 916 0 l 509 0 l 373 203 l 373 0 l 34 0 l 34 949 l 373 949 l 373 746 z "},"l":{"ha":678,"x_min":34,"x_max":644,"o":"m 34 949 l 373 949 l 373 271 l 644 271 l 644 0 l 34 0 l 34 949 z "},"m":{"ha":1153,"x_min":34,"x_max":1119,"o":"m 1119 949 l 1119 0 l 780 0 l 780 452 l 576 170 l 373 450 l 373 0 l 34 0 l 34 949 l 373 949 l 576 644 l 780 949 l 1119 949 z "},"n":{"ha":882,"x_min":34,"x_max":848,"o":"m 373 407 l 373 0 l 34 0 l 34 949 l 373 949 l 509 543 l 509 949 l 848 949 l 848 0 l 509 0 l 373 407 z "},"o":{"ha":1017,"x_min":34,"x_max":983,"o":"m 509 0 q 173 139 312 0 q 34 475 34 278 q 173 810 34 671 q 509 949 312 949 q 844 810 705 949 q 983 475 983 671 q 844 139 983 278 q 509 0 705 0 m 509 610 q 413 571 452 610 q 373 475 373 531 q 413 379 373 418 q 509 339 452 339 q 605 379 565 339 q 644 475 644 418 q 605 571 644 531 q 509 610 565 610 z "},"p":{"ha":882,"x_min":34,"x_max":848,"o":"m 373 271 l 373 0 l 34 0 l 34 949 l 576 949 q 848 610 848 949 q 576 271 848 271 l 373 271 m 373 678 l 373 543 l 441 543 q 509 610 509 543 q 441 678 509 678 l 373 678 z "},"q":{"ha":1051,"x_min":34,"x_max":1017,"o":"m 509 610 q 413 571 452 610 q 373 475 373 531 q 413 379 373 418 q 509 339 452 339 q 605 379 565 339 q 644 475 644 418 q 605 571 644 531 q 509 610 565 610 m 621 12 q 509 0 568 0 q 173 139 312 0 q 34 475 34 278 q 173 810 34 671 q 509 949 312 949 q 844 810 705 949 q 983 475 983 671 q 901 206 983 323 l 1017 68 l 746 -136 l 621 12 z "},"r":{"ha":882,"x_min":34,"x_max":848,"o":"m 373 678 l 373 543 l 441 543 q 509 610 509 543 q 441 678 509 678 l 373 678 m 373 271 l 373 0 l 34 0 l 34 949 l 576 949 q 848 610 848 949 q 701 295 848 360 l 848 0 l 509 0 l 373 271 z "},"s":{"ha":882,"x_min":34,"x_max":848,"o":"m 305 949 l 780 949 l 780 678 l 441 678 q 373 647 373 678 q 441 610 373 610 l 576 610 q 848 308 848 610 q 576 0 848 0 l 102 0 l 102 271 l 441 271 q 509 308 509 271 q 441 339 509 339 l 305 339 q 34 647 34 339 q 305 949 34 949 z "},"t":{"ha":814,"x_min":34,"x_max":780,"o":"m 576 678 l 576 0 l 237 0 l 237 678 l 34 678 l 34 949 l 780 949 l 780 678 l 576 678 z "},"u":{"ha":880,"x_min":34,"x_max":846,"o":"m 441 339 q 509 475 509 340 l 509 949 l 846 949 l 846 475 q 473 1 846 20 l 473 0 l 414 0 l 414 1 q 34 475 34 16 l 34 949 l 373 949 l 373 475 q 441 339 373 340 z "},"v":{"ha":1017,"x_min":34,"x_max":983,"o":"m 333 0 l 34 949 l 373 949 l 509 543 l 644 949 l 983 949 l 679 0 l 333 0 z "},"w":{"ha":1458,"x_min":34,"x_max":1424,"o":"m 728 203 l 644 0 l 333 0 l 34 949 l 373 949 l 509 543 l 610 949 l 845 949 l 949 543 l 1085 949 l 1424 949 l 1120 0 l 814 0 l 728 203 z "},"x":{"ha":1017,"x_min":34,"x_max":983,"o":"m 322 475 l 34 949 l 407 949 l 509 782 l 610 949 l 983 949 l 695 475 l 983 0 l 610 0 l 509 168 l 407 0 l 34 0 l 322 475 z "},"y":{"ha":1017,"x_min":34,"x_max":983,"o":"m 340 407 l 34 949 l 373 949 l 509 746 l 644 949 l 983 949 l 679 407 l 679 0 l 340 0 l 340 407 z "},"z":{"ha":814,"x_min":34,"x_max":780,"o":"m 780 949 l 780 678 l 441 271 l 780 271 l 780 0 l 34 0 l 34 271 l 373 678 l 34 678 l 34 949 l 780 949 z "},"{":{"ha":678,"x_min":34,"x_max":644,"o":"m 170 610 q 644 1085 170 1085 l 644 814 q 441 610 441 814 l 441 339 q 644 136 441 136 l 644 -136 q 170 339 170 -136 l 34 339 l 34 610 l 170 610 z "},"|":{"ha":339,"x_min":34,"x_max":305,"o":"m 305 1085 l 305 -136 l 34 -136 l 34 1085 l 305 1085 z "},"}":{"ha":678,"x_min":34,"x_max":644,"o":"m 509 339 q 34 -136 509 -136 l 34 136 q 237 339 237 136 l 237 610 q 34 814 237 814 l 34 1085 q 509 610 509 1085 l 644 610 l 644 339 l 509 339 z "},"~":{"ha":746,"x_min":34,"x_max":712,"o":"m 34 294 l 34 565 q 220 599 136 599 q 373 565 305 599 q 471 543 418 543 q 712 633 576 543 l 712 361 q 471 271 576 271 q 373 294 418 271 q 220 328 305 328 q 34 294 136 328 z "},"£":{"ha":949,"x_min":34,"x_max":916,"o":"m 441 407 l 441 339 l 916 339 l 916 0 l 102 0 l 102 407 l 34 407 l 34 543 l 106 543 q 241 810 126 696 q 576 949 380 949 q 912 810 773 949 q 916 807 914 808 l 675 568 q 673 571 674 570 q 576 610 633 610 q 481 571 520 610 q 458 543 467 557 l 576 543 l 576 407 l 441 407 z "},"¥":{"ha":1017,"x_min":34,"x_max":983,"o":"m 340 407 l 34 949 l 373 949 l 509 746 l 644 949 l 983 949 l 679 407 l 780 407 l 780 271 l 679 271 l 679 237 l 780 237 l 780 102 l 679 102 l 679 0 l 340 0 l 340 102 l 237 102 l 237 237 l 340 237 l 340 271 l 237 271 l 237 407 l 340 407 z "},"´":{"ha":475,"x_min":34,"x_max":441,"o":"m 305 1017 l 34 1017 l 170 1356 l 441 1356 l 305 1017 z "},"÷":{"ha":746,"x_min":34,"x_max":712,"o":"m 712 678 l 712 407 l 34 407 l 34 678 l 712 678 m 373 339 q 493 290 444 339 q 543 170 543 240 q 493 50 543 99 q 373 0 444 0 q 253 50 302 0 q 203 170 203 99 q 253 290 203 240 q 373 339 302 339 m 373 1085 q 493 1036 444 1085 q 543 916 543 986 q 493 795 543 845 q 373 746 444 746 q 253 795 302 746 q 203 916 203 845 q 253 1036 203 986 q 373 1085 302 1085 z "},"ˆ":{"ha":746,"x_min":34,"x_max":712,"o":"m 576 1356 l 712 1017 l 441 1017 l 373 1187 l 305 1017 l 34 1017 l 170 1356 l 576 1356 z "},"˜":{"ha":746,"x_min":34,"x_max":712,"o":"m 34 1040 l 34 1311 q 220 1345 136 1345 q 373 1311 305 1345 q 471 1289 418 1289 q 712 1379 576 1289 l 712 1107 q 471 1017 576 1017 q 373 1040 418 1017 q 220 1074 305 1074 q 34 1040 136 1074 z "},"˝":{"ha":845,"x_min":34,"x_max":811,"o":"m 305 610 l 34 610 l 170 949 l 441 949 l 305 610 m 675 610 l 404 610 l 540 949 l 811 949 l 675 610 z "},"–":{"ha":746,"x_min":34,"x_max":712,"o":"m 712 610 l 712 339 l 34 339 l 34 610 l 712 610 z "},"—":{"ha":1356,"x_min":34,"x_max":1322,"o":"m 1322 610 l 1322 339 l 34 339 l 34 610 l 1322 610 z "},"‘":{"ha":339,"x_min":34,"x_max":305,"o":"m 305 949 l 305 543 l 34 543 l 34 949 l 305 949 z "},"’":{"ha":339,"x_min":34,"x_max":305,"o":"m 305 949 l 305 543 l 34 543 l 34 949 l 305 949 z "},"‚":{"ha":339,"x_min":34,"x_max":305,"o":"m 305 136 l 305 -271 l 34 -271 l 34 136 l 305 136 z "},"“":{"ha":678,"x_min":34,"x_max":644,"o":"m 305 949 l 305 543 l 34 543 l 34 949 l 305 949 m 644 949 l 644 543 l 373 543 l 373 949 l 644 949 z "},"”":{"ha":678,"x_min":34,"x_max":644,"o":"m 305 949 l 305 543 l 34 543 l 34 949 l 305 949 m 644 949 l 644 543 l 373 543 l 373 949 l 644 949 z "},"„":{"ha":678,"x_min":34,"x_max":644,"o":"m 305 136 l 305 -271 l 34 -271 l 34 136 l 305 136 m 644 136 l 644 -271 l 373 -271 l 373 136 l 644 136 z "},"•":{"ha":407,"x_min":34,"x_max":373,"o":"m 203 678 q 323 629 274 678 q 373 509 373 579 q 323 389 373 438 q 203 339 274 339 q 83 389 133 339 q 34 509 34 438 q 83 629 34 579 q 203 678 133 678 z "},"…":{"ha":1220,"x_min":34,"x_max":1186,"o":"m 203 339 q 323 290 274 339 q 373 170 373 240 q 323 50 373 99 q 203 0 274 0 q 83 50 133 0 q 34 170 34 99 q 83 290 34 240 q 203 339 133 339 m 612 339 q 732 290 682 339 q 781 170 781 240 q 732 50 781 99 q 612 0 682 0 q 492 50 541 0 q 442 170 442 99 q 492 290 442 240 q 612 339 541 339 m 1017 339 q 1137 290 1087 339 q 1186 170 1186 240 q 1137 50 1186 99 q 1017 0 1087 0 q 897 50 946 0 q 847 170 847 99 q 897 290 847 240 q 1017 339 946 339 z "},"‹":{"ha":814,"x_min":34,"x_max":780,"o":"m 34 610 l 780 949 l 780 678 l 305 475 l 780 271 l 780 0 l 34 339 l 34 610 z "},"›":{"ha":814,"x_min":34,"x_max":780,"o":"m 780 339 l 34 0 l 34 271 l 509 475 l 34 678 l 34 949 l 780 610 l 780 339 z "},"€":{"ha":949,"x_min":34,"x_max":916,"o":"m 106 543 q 241 810 126 696 q 576 949 380 949 q 912 810 773 949 q 916 807 914 808 l 675 568 q 673 571 674 570 q 576 610 633 610 q 481 571 520 610 q 458 543 467 557 l 576 543 l 576 407 l 458 407 q 481 379 467 392 q 576 339 520 339 q 671 378 632 339 l 911 138 q 576 0 772 0 q 241 139 380 0 q 106 407 126 254 l 34 407 l 34 543 l 106 543 z "},"™":{"ha":796,"x_min":34,"x_max":762,"o":"m 239 853 l 239 610 l 142 610 l 142 853 l 34 853 l 34 950 l 349 950 l 349 853 l 239 853 m 762 950 l 762 610 l 665 610 l 665 772 l 616 610 l 519 610 l 471 772 l 471 610 l 374 610 l 374 950 l 495 950 l 568 756 l 641 950 l 762 950 z "},"−":{"ha":746,"x_min":34,"x_max":712,"o":"m 712 610 l 712 339 l 34 339 l 34 610 l 712 610 z "}}}
